<svg width="1024" height="1024" viewBox="0 0 1024 1024" fill="none" xmlns="http://www.w3.org/2000/svg">
<circle cx="512" cy="512" r="456" fill="white"/>
<path d="M253.73 401C253.257 395.081 251.037 390.465 247.072 387.151C243.165 383.836 237.217 382.179 229.227 382.179C224.137 382.179 219.965 382.8 216.71 384.043C213.513 385.227 211.146 386.855 209.607 388.926C208.068 390.998 207.269 393.365 207.21 396.028C207.092 398.218 207.477 400.201 208.364 401.977C209.311 403.693 210.791 405.261 212.803 406.682C214.816 408.043 217.39 409.286 220.527 410.411C223.664 411.535 227.393 412.541 231.713 413.429L246.628 416.625C256.689 418.756 265.301 421.567 272.462 425.059C279.624 428.551 285.483 432.664 290.04 437.399C294.598 442.075 297.942 447.342 300.072 453.202C302.262 459.061 303.387 465.453 303.446 472.378C303.387 484.333 300.398 494.454 294.479 502.74C288.561 511.026 280.097 517.329 269.089 521.65C258.139 525.97 244.971 528.131 229.582 528.131C213.78 528.131 199.99 525.793 188.212 521.117C176.493 516.442 167.378 509.25 160.868 499.544C154.417 489.778 151.161 477.29 151.102 462.08H197.977C198.273 467.643 199.664 472.319 202.15 476.107C204.636 479.894 208.128 482.765 212.626 484.718C217.183 486.671 222.598 487.648 228.872 487.648C234.14 487.648 238.549 486.997 242.1 485.695C245.651 484.393 248.344 482.587 250.179 480.279C252.014 477.971 252.961 475.337 253.02 472.378C252.961 469.596 252.043 467.17 250.268 465.098C248.551 462.967 245.71 461.073 241.745 459.416C237.78 457.7 232.423 456.102 225.676 454.622L207.565 450.716C191.467 447.224 178.772 441.394 169.479 433.227C160.246 425 155.66 413.784 155.719 399.58C155.66 388.038 158.737 377.947 164.952 369.306C171.225 360.606 179.896 353.829 190.964 348.976C202.091 344.123 214.845 341.696 229.227 341.696C243.905 341.696 256.601 344.152 267.313 349.065C278.026 353.977 286.282 360.902 292.082 369.839C297.942 378.717 300.901 389.104 300.96 401H253.73ZM322.223 344.182H383.657L425.916 447.165H428.047L470.305 344.182H531.74V526H483.444V420.886H482.024L441.541 524.58H412.422L371.939 420.176H370.518V526H322.223V344.182ZM550.161 383.955V344.182H708.187V383.955H653.499V526H604.849V383.955H550.161ZM726.764 526V344.182H805.244C818.738 344.182 830.546 346.845 840.666 352.172C850.787 357.499 858.659 364.986 864.281 374.633C869.904 384.28 872.715 395.555 872.715 408.457C872.715 421.478 869.815 432.753 864.015 442.282C858.274 451.811 850.195 459.15 839.779 464.299C829.421 469.448 817.318 472.023 803.468 472.023H756.593V433.67H793.525C799.325 433.67 804.267 432.664 808.351 430.652C812.494 428.58 815.66 425.651 817.85 421.863C820.099 418.075 821.224 413.607 821.224 408.457C821.224 403.249 820.099 398.81 817.85 395.141C815.66 391.412 812.494 388.571 808.351 386.618C804.267 384.606 799.325 383.599 793.525 383.599H776.124V526H726.764Z" fill="black"/>
<path d="M159.98 560.545H186.614L232.92 673.614H234.625L280.932 560.545H307.565V706H286.685V600.744H285.335L242.438 705.787H225.108L182.21 600.673H180.861V706H159.98V560.545ZM351.759 706H328.464L380.808 560.545H406.163L458.506 706H435.211L394.089 586.966H392.952L351.759 706ZM355.665 649.04H431.234V667.506H355.665V649.04ZM501.457 560.545V706H479.511V560.545H501.457ZM533.418 706V560.545H555.364V687.108H621.273V706H533.418ZM646.308 706V560.545H737.501V579.438H668.254V623.756H732.743V642.577H668.254V687.108H738.354V706H646.308ZM766.816 706V560.545H818.663C829.932 560.545 839.283 562.487 846.717 566.369C854.198 570.252 859.785 575.626 863.478 582.491C867.171 589.31 869.018 597.193 869.018 606.142C869.018 615.044 867.147 622.88 863.407 629.651C859.714 636.374 854.127 641.606 846.646 645.347C839.212 649.087 829.861 650.957 818.592 650.957H779.316V632.065H816.603C823.705 632.065 829.482 631.047 833.933 629.011C838.431 626.975 841.721 624.016 843.805 620.134C845.888 616.251 846.93 611.587 846.93 606.142C846.93 600.65 845.864 595.891 843.734 591.866C841.65 587.842 838.36 584.764 833.862 582.634C829.411 580.455 823.563 579.366 816.319 579.366H788.762V706H766.816ZM838.62 640.375L874.558 706H849.558L814.33 640.375H838.62Z" fill="#EF6F47"/>
</svg>
